<svg width="73" height="20" viewBox="0 0 73 20" fill="none" xmlns="http://www.w3.org/2000/svg">
<path d="M7.432 13.144C6.496 13.144 5.792 12.976 5.32 12.64C4.856 12.296 4.624 11.776 4.624 11.08C4.624 10.616 4.736 10.232 4.96 9.928C5.192 9.624 5.516 9.396 5.932 9.244C6.356 9.092 6.856 9.016 7.432 9.016C7.88 9.016 8.252 9.056 8.548 9.136C8.852 9.208 9.112 9.28 9.328 9.352V10.216C9.112 10.144 8.844 10.08 8.524 10.024C8.204 9.96 7.904 9.928 7.624 9.928C6.976 9.928 6.492 10.012 6.172 10.18C5.86 10.348 5.704 10.648 5.704 11.08C5.704 11.488 5.856 11.784 6.16 11.968C6.464 12.144 6.904 12.232 7.48 12.232C7.8 12.232 8.108 12.208 8.404 12.16C8.7 12.104 8.976 12.032 9.232 11.944L9.016 12.268C9 12.204 8.984 12.132 8.968 12.052C8.96 11.972 8.952 11.888 8.944 11.8C8.936 11.712 8.928 11.62 8.92 11.524C8.92 11.428 8.92 11.328 8.92 11.224V9.064C8.92 8.552 8.848 8.172 8.704 7.924C8.568 7.668 8.36 7.5 8.08 7.42C7.808 7.332 7.464 7.288 7.048 7.288C6.736 7.288 6.416 7.328 6.088 7.408C5.768 7.488 5.512 7.576 5.32 7.672H5.224V6.688C5.512 6.568 5.832 6.48 6.184 6.424C6.544 6.36 6.88 6.328 7.192 6.328C7.592 6.328 7.96 6.364 8.296 6.436C8.64 6.508 8.94 6.64 9.196 6.832C9.46 7.016 9.664 7.284 9.808 7.636C9.952 7.988 10.024 8.448 10.024 9.016V10.6C10.024 10.76 10.024 10.968 10.024 11.224C10.032 11.48 10.04 11.732 10.048 11.98C10.064 12.228 10.088 12.424 10.12 12.568L10.096 12.664C9.832 12.76 9.54 12.844 9.22 12.916C8.9 12.988 8.58 13.044 8.26 13.084C7.948 13.124 7.672 13.144 7.432 13.144ZM12.2301 15.784V8.824C12.2301 8.68 12.2261 8.484 12.2181 8.236C12.2181 7.988 12.2101 7.74 12.1941 7.492C12.1861 7.244 12.1661 7.048 12.1341 6.904L12.1581 6.808C12.5101 6.664 12.8981 6.548 13.3221 6.46C13.7541 6.372 14.1741 6.328 14.5821 6.328C15.0861 6.328 15.5381 6.404 15.9381 6.556C16.3461 6.708 16.6941 6.932 16.9821 7.228C17.2701 7.516 17.4901 7.868 17.6421 8.284C17.7941 8.7 17.8701 9.176 17.8701 9.712C17.8701 10.248 17.7901 10.728 17.6301 11.152C17.4701 11.576 17.2421 11.936 16.9461 12.232C16.6501 12.528 16.2901 12.756 15.8661 12.916C15.4421 13.068 14.9661 13.144 14.4381 13.144C14.1901 13.144 13.9421 13.116 13.6941 13.06C13.4541 13.012 13.2621 12.972 13.1181 12.94L13.1901 11.956C13.2861 12.012 13.4301 12.064 13.6221 12.112C13.8221 12.16 14.0941 12.184 14.4381 12.184C15.2061 12.184 15.7821 11.972 16.1661 11.548C16.5501 11.124 16.7421 10.512 16.7421 9.712C16.7421 8.904 16.5461 8.3 16.1541 7.9C15.7621 7.492 15.2061 7.288 14.4861 7.288C14.2141 7.288 13.9501 7.32 13.6941 7.384C13.4461 7.44 13.2421 7.512 13.0821 7.6L13.2621 7.264C13.2861 7.384 13.3021 7.532 13.3101 7.708C13.3261 7.884 13.3341 8.064 13.3341 8.248V15.784H12.2301ZM21.9281 13.144C20.9921 13.144 20.2881 12.976 19.8161 12.64C19.3521 12.296 19.1201 11.776 19.1201 11.08C19.1201 10.616 19.2321 10.232 19.4561 9.928C19.6881 9.624 20.0121 9.396 20.4281 9.244C20.8521 9.092 21.3521 9.016 21.9281 9.016C22.3761 9.016 22.7481 9.056 23.0441 9.136C23.3481 9.208 23.6081 9.28 23.8241 9.352V10.216C23.6081 10.144 23.3401 10.08 23.0201 10.024C22.7001 9.96 22.4001 9.928 22.1201 9.928C21.4721 9.928 20.9881 10.012 20.6681 10.18C20.3561 10.348 20.2001 10.648 20.2001 11.08C20.2001 11.488 20.3521 11.784 20.6561 11.968C20.9601 12.144 21.4001 12.232 21.9761 12.232C22.2961 12.232 22.6041 12.208 22.9001 12.16C23.1961 12.104 23.4721 12.032 23.7281 11.944L23.5121 12.268C23.4961 12.204 23.4801 12.132 23.4641 12.052C23.4561 11.972 23.4481 11.888 23.4401 11.8C23.4321 11.712 23.4241 11.62 23.4161 11.524C23.4161 11.428 23.4161 11.328 23.4161 11.224V9.064C23.4161 8.552 23.3441 8.172 23.2001 7.924C23.0641 7.668 22.8561 7.5 22.5761 7.42C22.3041 7.332 21.9601 7.288 21.5441 7.288C21.2321 7.288 20.9121 7.328 20.5841 7.408C20.2641 7.488 20.0081 7.576 19.8161 7.672H19.7201V6.688C20.0081 6.568 20.3281 6.48 20.6801 6.424C21.0401 6.36 21.3761 6.328 21.6881 6.328C22.0881 6.328 22.4561 6.364 22.7921 6.436C23.1361 6.508 23.4361 6.64 23.6921 6.832C23.9561 7.016 24.1601 7.284 24.3041 7.636C24.4481 7.988 24.5201 8.448 24.5201 9.016V10.6C24.5201 10.76 24.5201 10.968 24.5201 11.224C24.5281 11.48 24.5361 11.732 24.5441 11.98C24.5601 12.228 24.5841 12.424 24.6161 12.568L24.5921 12.664C24.3281 12.76 24.0361 12.844 23.7161 12.916C23.3961 12.988 23.0761 13.044 22.7561 13.084C22.4441 13.124 22.1681 13.144 21.9281 13.144ZM26.7262 13V8.872C26.7262 8.712 26.7222 8.504 26.7142 8.248C26.7142 7.992 26.7062 7.74 26.6902 7.492C26.6822 7.244 26.6622 7.048 26.6302 6.904L26.6542 6.808C26.8622 6.728 27.1262 6.652 27.4462 6.58C27.7662 6.508 28.0902 6.448 28.4182 6.4C28.7462 6.352 29.0302 6.328 29.2702 6.328C29.6702 6.328 30.0422 6.372 30.3862 6.46C30.7302 6.54 31.0342 6.688 31.2982 6.904C31.5702 7.112 31.7782 7.4 31.9222 7.768C32.0742 8.128 32.1502 8.592 32.1502 9.16V13H31.0462V9.256C31.0462 8.728 30.9702 8.324 30.8182 8.044C30.6662 7.756 30.4462 7.56 30.1582 7.456C29.8702 7.344 29.5262 7.288 29.1262 7.288C28.8702 7.288 28.5942 7.316 28.2982 7.372C28.0102 7.428 27.7582 7.496 27.5422 7.576L27.7342 7.24C27.7662 7.36 27.7902 7.512 27.8062 7.696C27.8222 7.872 27.8302 8.056 27.8302 8.248V13H26.7262ZM36.682 13.144C35.746 13.144 35.042 12.976 34.57 12.64C34.106 12.296 33.874 11.776 33.874 11.08C33.874 10.616 33.986 10.232 34.21 9.928C34.442 9.624 34.766 9.396 35.182 9.244C35.606 9.092 36.106 9.016 36.682 9.016C37.13 9.016 37.502 9.056 37.798 9.136C38.102 9.208 38.362 9.28 38.578 9.352V10.216C38.362 10.144 38.094 10.08 37.774 10.024C37.454 9.96 37.154 9.928 36.874 9.928C36.226 9.928 35.742 10.012 35.422 10.18C35.11 10.348 34.954 10.648 34.954 11.08C34.954 11.488 35.106 11.784 35.41 11.968C35.714 12.144 36.154 12.232 36.73 12.232C37.05 12.232 37.358 12.208 37.654 12.16C37.95 12.104 38.226 12.032 38.482 11.944L38.266 12.268C38.25 12.204 38.234 12.132 38.218 12.052C38.21 11.972 38.202 11.888 38.194 11.8C38.186 11.712 38.178 11.62 38.17 11.524C38.17 11.428 38.17 11.328 38.17 11.224V9.064C38.17 8.552 38.098 8.172 37.954 7.924C37.818 7.668 37.61 7.5 37.33 7.42C37.058 7.332 36.714 7.288 36.298 7.288C35.986 7.288 35.666 7.328 35.338 7.408C35.018 7.488 34.762 7.576 34.57 7.672H34.474V6.688C34.762 6.568 35.082 6.48 35.434 6.424C35.794 6.36 36.13 6.328 36.442 6.328C36.842 6.328 37.21 6.364 37.546 6.436C37.89 6.508 38.19 6.64 38.446 6.832C38.71 7.016 38.914 7.284 39.058 7.636C39.202 7.988 39.274 8.448 39.274 9.016V10.6C39.274 10.76 39.274 10.968 39.274 11.224C39.282 11.48 39.29 11.732 39.298 11.98C39.314 12.228 39.338 12.424 39.37 12.568L39.346 12.664C39.082 12.76 38.79 12.844 38.47 12.916C38.15 12.988 37.83 13.044 37.51 13.084C37.198 13.124 36.922 13.144 36.682 13.144Z" fill="white"/>
<path d="M41.0361 11.128H41.1561C41.3481 11.232 41.5761 11.328 41.8401 11.416C42.1041 11.504 42.3921 11.576 42.7041 11.632C43.0241 11.68 43.3521 11.704 43.6881 11.704C44.0561 11.704 44.3721 11.676 44.6361 11.62C44.9001 11.556 45.1041 11.456 45.2481 11.32C45.3921 11.176 45.4641 10.984 45.4641 10.744C45.4641 10.448 45.3721 10.232 45.1881 10.096C45.0041 9.96 44.7041 9.856 44.2881 9.784L43.3761 9.628C42.8641 9.548 42.4201 9.408 42.0441 9.208C41.6681 9 41.3761 8.724 41.1681 8.38C40.9681 8.028 40.8681 7.6 40.8681 7.096C40.8681 6.472 41.0121 5.948 41.3001 5.524C41.5961 5.092 42.0321 4.768 42.6081 4.552C43.1841 4.328 43.8921 4.216 44.7321 4.216C45.1161 4.216 45.4881 4.252 45.8481 4.324C46.2161 4.388 46.5161 4.472 46.7481 4.576V6.076H46.6401C46.4161 5.972 46.1321 5.876 45.7881 5.788C45.4521 5.7 45.0641 5.656 44.6241 5.656C44.2081 5.656 43.8401 5.704 43.5201 5.8C43.2081 5.888 42.9641 6.032 42.7881 6.232C42.6201 6.432 42.5361 6.692 42.5361 7.012C42.5361 7.412 42.6521 7.692 42.8841 7.852C43.1161 8.012 43.4641 8.136 43.9281 8.224L44.8161 8.368C45.2561 8.44 45.6521 8.568 46.0041 8.752C46.3561 8.928 46.6321 9.176 46.8321 9.496C47.0401 9.808 47.1441 10.208 47.1441 10.696C47.1441 11.128 47.0561 11.5 46.8801 11.812C46.7121 12.124 46.4721 12.38 46.1601 12.58C45.8481 12.772 45.4801 12.912 45.0561 13C44.6401 13.096 44.1841 13.144 43.6881 13.144C43.3361 13.144 42.9961 13.12 42.6681 13.072C42.3481 13.032 42.0441 12.98 41.7561 12.916C41.4761 12.844 41.2361 12.768 41.0361 12.688V11.128ZM48.7309 15.784V8.86C48.7309 8.708 48.7269 8.512 48.7189 8.272C48.7109 8.024 48.6989 7.78 48.6829 7.54C48.6749 7.3 48.6509 7.108 48.6109 6.964L48.6469 6.868C49.0629 6.692 49.5029 6.552 49.9669 6.448C50.4309 6.344 50.9029 6.292 51.3829 6.292C51.8709 6.292 52.3229 6.36 52.7389 6.496C53.1629 6.624 53.5349 6.828 53.8549 7.108C54.1749 7.388 54.4229 7.744 54.5989 8.176C54.7829 8.6 54.8749 9.108 54.8749 9.7C54.8749 10.188 54.8029 10.644 54.6589 11.068C54.5149 11.484 54.2989 11.848 54.0109 12.16C53.7229 12.472 53.3589 12.716 52.9189 12.892C52.4869 13.06 51.9789 13.144 51.3949 13.144C51.1629 13.144 50.9309 13.124 50.6989 13.084C50.4669 13.044 50.2909 13.012 50.1709 12.988L50.2669 11.692C50.3549 11.732 50.4749 11.772 50.6269 11.812C50.7789 11.844 50.9789 11.86 51.2269 11.86C51.8989 11.86 52.3869 11.668 52.6909 11.284C53.0029 10.9 53.1589 10.372 53.1589 9.7C53.1589 9.036 53.0029 8.52 52.6909 8.152C52.3789 7.784 51.9109 7.6 51.2869 7.6C51.0389 7.6 50.8029 7.632 50.5789 7.696C50.3549 7.752 50.1949 7.816 50.0989 7.888L50.2549 7.456C50.3189 7.576 50.3589 7.728 50.3749 7.912C50.3989 8.088 50.4109 8.296 50.4109 8.536V15.784H48.7309ZM56.4302 13V5.908C56.4302 5.748 56.4262 5.544 56.4182 5.296C56.4182 5.04 56.4102 4.792 56.3942 4.552C56.3782 4.312 56.3502 4.12 56.3102 3.976L56.3462 3.88H58.1102V13H56.4302ZM60.985 5.416C60.713 5.416 60.485 5.336 60.301 5.176C60.125 5.008 60.037 4.776 60.037 4.48C60.037 4.192 60.125 3.968 60.301 3.808C60.485 3.64 60.713 3.556 60.985 3.556C61.265 3.556 61.493 3.64 61.669 3.808C61.845 3.968 61.933 4.192 61.933 4.48C61.933 4.776 61.845 5.008 61.669 5.176C61.493 5.336 61.265 5.416 60.985 5.416ZM60.145 13V8.476C60.145 8.316 60.141 8.112 60.133 7.864C60.125 7.616 60.113 7.372 60.097 7.132C60.089 6.884 60.065 6.688 60.025 6.544L60.061 6.448H61.825V13H60.145ZM66.7158 13.096C66.1478 13.096 65.6638 13.012 65.2638 12.844C64.8718 12.676 64.5718 12.42 64.3638 12.076C64.1638 11.724 64.0638 11.272 64.0638 10.72V4.756H65.7438V10.588C65.7438 10.996 65.8398 11.288 66.0318 11.464C66.2238 11.64 66.5198 11.728 66.9198 11.728C67.0718 11.728 67.2198 11.712 67.3638 11.68C67.5158 11.648 67.6478 11.608 67.7598 11.56H67.8678V12.904C67.7238 12.96 67.5558 13.004 67.3638 13.036C67.1718 13.076 66.9558 13.096 66.7158 13.096ZM63.0198 7.792V6.448H67.5318V7.792H63.0198Z" fill="#20BD9C"/>
</svg>
