<svg width="66" height="16" viewBox="0 0 66 16" fill="none" xmlns="http://www.w3.org/2000/svg">
<path d="M7.432 11.144C6.496 11.144 5.792 10.976 5.32 10.64C4.856 10.296 4.624 9.776 4.624 9.08C4.624 8.616 4.736 8.232 4.96 7.928C5.192 7.624 5.516 7.396 5.932 7.244C6.356 7.092 6.856 7.016 7.432 7.016C7.88 7.016 8.252 7.056 8.548 7.136C8.852 7.208 9.112 7.28 9.328 7.352V8.216C9.112 8.144 8.844 8.08 8.524 8.024C8.204 7.96 7.904 7.928 7.624 7.928C6.976 7.928 6.492 8.012 6.172 8.18C5.86 8.348 5.704 8.648 5.704 9.08C5.704 9.488 5.856 9.784 6.16 9.968C6.464 10.144 6.904 10.232 7.48 10.232C7.8 10.232 8.108 10.208 8.404 10.16C8.7 10.104 8.976 10.032 9.232 9.944L9.016 10.268C9 10.204 8.984 10.132 8.968 10.052C8.96 9.972 8.952 9.888 8.944 9.8C8.936 9.712 8.928 9.62 8.92 9.524C8.92 9.428 8.92 9.328 8.92 9.224V7.064C8.92 6.552 8.848 6.172 8.704 5.924C8.568 5.668 8.36 5.5 8.08 5.42C7.808 5.332 7.464 5.288 7.048 5.288C6.736 5.288 6.416 5.328 6.088 5.408C5.768 5.488 5.512 5.576 5.32 5.672H5.224V4.688C5.512 4.568 5.832 4.48 6.184 4.424C6.544 4.36 6.88 4.328 7.192 4.328C7.592 4.328 7.96 4.364 8.296 4.436C8.64 4.508 8.94 4.64 9.196 4.832C9.46 5.016 9.664 5.284 9.808 5.636C9.952 5.988 10.024 6.448 10.024 7.016V8.6C10.024 8.76 10.024 8.968 10.024 9.224C10.032 9.48 10.04 9.732 10.048 9.98C10.064 10.228 10.088 10.424 10.12 10.568L10.096 10.664C9.832 10.76 9.54 10.844 9.22 10.916C8.9 10.988 8.58 11.044 8.26 11.084C7.948 11.124 7.672 11.144 7.432 11.144ZM12.2301 13.784V6.824C12.2301 6.68 12.2261 6.484 12.2181 6.236C12.2181 5.988 12.2101 5.74 12.1941 5.492C12.1861 5.244 12.1661 5.048 12.1341 4.904L12.1581 4.808C12.5101 4.664 12.8981 4.548 13.3221 4.46C13.7541 4.372 14.1741 4.328 14.5821 4.328C15.0861 4.328 15.5381 4.404 15.9381 4.556C16.3461 4.708 16.6941 4.932 16.9821 5.228C17.2701 5.516 17.4901 5.868 17.6421 6.284C17.7941 6.7 17.8701 7.176 17.8701 7.712C17.8701 8.248 17.7901 8.728 17.6301 9.152C17.4701 9.576 17.2421 9.936 16.9461 10.232C16.6501 10.528 16.2901 10.756 15.8661 10.916C15.4421 11.068 14.9661 11.144 14.4381 11.144C14.1901 11.144 13.9421 11.116 13.6941 11.06C13.4541 11.012 13.2621 10.972 13.1181 10.94L13.1901 9.956C13.2861 10.012 13.4301 10.064 13.6221 10.112C13.8221 10.16 14.0941 10.184 14.4381 10.184C15.2061 10.184 15.7821 9.972 16.1661 9.548C16.5501 9.124 16.7421 8.512 16.7421 7.712C16.7421 6.904 16.5461 6.3 16.1541 5.9C15.7621 5.492 15.2061 5.288 14.4861 5.288C14.2141 5.288 13.9501 5.32 13.6941 5.384C13.4461 5.44 13.2421 5.512 13.0821 5.6L13.2621 5.264C13.2861 5.384 13.3021 5.532 13.3101 5.708C13.3261 5.884 13.3341 6.064 13.3341 6.248V13.784H12.2301ZM19.6481 11V6.872C19.6481 6.712 19.6441 6.504 19.6361 6.248C19.6361 5.992 19.6281 5.74 19.6121 5.492C19.6041 5.244 19.5841 5.048 19.5521 4.904L19.5761 4.808C19.7841 4.728 20.0481 4.652 20.3681 4.58C20.6881 4.508 21.0121 4.448 21.3401 4.4C21.6681 4.352 21.9521 4.328 22.1921 4.328C22.5921 4.328 22.9641 4.372 23.3081 4.46C23.6521 4.54 23.9561 4.688 24.2201 4.904C24.4921 5.112 24.7001 5.4 24.8441 5.768C24.9961 6.128 25.0721 6.592 25.0721 7.16V11H23.9681V7.256C23.9681 6.728 23.8921 6.324 23.7401 6.044C23.5881 5.756 23.3681 5.56 23.0801 5.456C22.7921 5.344 22.4481 5.288 22.0481 5.288C21.7921 5.288 21.5161 5.316 21.2201 5.372C20.9321 5.428 20.6801 5.496 20.4641 5.576L20.6561 5.24C20.6881 5.36 20.7121 5.512 20.7281 5.696C20.7441 5.872 20.7521 6.056 20.7521 6.248V11H19.6481ZM29.6039 11.144C28.6679 11.144 27.9639 10.976 27.4919 10.64C27.0279 10.296 26.7959 9.776 26.7959 9.08C26.7959 8.616 26.9079 8.232 27.1319 7.928C27.3639 7.624 27.6879 7.396 28.1039 7.244C28.5279 7.092 29.0279 7.016 29.6039 7.016C30.0519 7.016 30.4239 7.056 30.7199 7.136C31.0239 7.208 31.2839 7.28 31.4999 7.352V8.216C31.2839 8.144 31.0159 8.08 30.6959 8.024C30.3759 7.96 30.0759 7.928 29.7959 7.928C29.1479 7.928 28.6639 8.012 28.3439 8.18C28.0319 8.348 27.8759 8.648 27.8759 9.08C27.8759 9.488 28.0279 9.784 28.3319 9.968C28.6359 10.144 29.0759 10.232 29.6519 10.232C29.9719 10.232 30.2799 10.208 30.5759 10.16C30.8719 10.104 31.1479 10.032 31.4039 9.944L31.1879 10.268C31.1719 10.204 31.1559 10.132 31.1399 10.052C31.1319 9.972 31.1239 9.888 31.1159 9.8C31.1079 9.712 31.0999 9.62 31.0919 9.524C31.0919 9.428 31.0919 9.328 31.0919 9.224V7.064C31.0919 6.552 31.0199 6.172 30.8759 5.924C30.7399 5.668 30.5319 5.5 30.2519 5.42C29.9799 5.332 29.6359 5.288 29.2199 5.288C28.9079 5.288 28.5879 5.328 28.2599 5.408C27.9399 5.488 27.6839 5.576 27.4919 5.672H27.3959V4.688C27.6839 4.568 28.0039 4.48 28.3559 4.424C28.7159 4.36 29.0519 4.328 29.3639 4.328C29.7639 4.328 30.1319 4.364 30.4679 4.436C30.8119 4.508 31.1119 4.64 31.3679 4.832C31.6319 5.016 31.8359 5.284 31.9799 5.636C32.1239 5.988 32.1959 6.448 32.1959 7.016V8.6C32.1959 8.76 32.1959 8.968 32.1959 9.224C32.2039 9.48 32.2119 9.732 32.2199 9.98C32.2359 10.228 32.2599 10.424 32.2919 10.568L32.2679 10.664C32.0039 10.76 31.7119 10.844 31.3919 10.916C31.0719 10.988 30.7519 11.044 30.4319 11.084C30.1199 11.124 29.8439 11.144 29.6039 11.144Z" fill="white"/>
<path d="M33.958 9.128H34.078C34.27 9.232 34.498 9.328 34.762 9.416C35.026 9.504 35.314 9.576 35.626 9.632C35.946 9.68 36.274 9.704 36.61 9.704C36.978 9.704 37.294 9.676 37.558 9.62C37.822 9.556 38.026 9.456 38.17 9.32C38.314 9.176 38.386 8.984 38.386 8.744C38.386 8.448 38.294 8.232 38.11 8.096C37.926 7.96 37.626 7.856 37.21 7.784L36.298 7.628C35.786 7.548 35.342 7.408 34.966 7.208C34.59 7 34.298 6.724 34.09 6.38C33.89 6.028 33.79 5.6 33.79 5.096C33.79 4.472 33.934 3.948 34.222 3.524C34.518 3.092 34.954 2.768 35.53 2.552C36.106 2.328 36.814 2.216 37.654 2.216C38.038 2.216 38.41 2.252 38.77 2.324C39.138 2.388 39.438 2.472 39.67 2.576V4.076H39.562C39.338 3.972 39.054 3.876 38.71 3.788C38.374 3.7 37.986 3.656 37.546 3.656C37.13 3.656 36.762 3.704 36.442 3.8C36.13 3.888 35.886 4.032 35.71 4.232C35.542 4.432 35.458 4.692 35.458 5.012C35.458 5.412 35.574 5.692 35.806 5.852C36.038 6.012 36.386 6.136 36.85 6.224L37.738 6.368C38.178 6.44 38.574 6.568 38.926 6.752C39.278 6.928 39.554 7.176 39.754 7.496C39.962 7.808 40.066 8.208 40.066 8.696C40.066 9.128 39.978 9.5 39.802 9.812C39.634 10.124 39.394 10.38 39.082 10.58C38.77 10.772 38.402 10.912 37.978 11C37.562 11.096 37.106 11.144 36.61 11.144C36.258 11.144 35.918 11.12 35.59 11.072C35.27 11.032 34.966 10.98 34.678 10.916C34.398 10.844 34.158 10.768 33.958 10.688V9.128ZM41.6528 13.784V6.86C41.6528 6.708 41.6488 6.512 41.6408 6.272C41.6328 6.024 41.6208 5.78 41.6048 5.54C41.5968 5.3 41.5728 5.108 41.5328 4.964L41.5688 4.868C41.9848 4.692 42.4248 4.552 42.8888 4.448C43.3528 4.344 43.8248 4.292 44.3048 4.292C44.7928 4.292 45.2448 4.36 45.6608 4.496C46.0848 4.624 46.4568 4.828 46.7768 5.108C47.0968 5.388 47.3448 5.744 47.5208 6.176C47.7048 6.6 47.7968 7.108 47.7968 7.7C47.7968 8.188 47.7248 8.644 47.5808 9.068C47.4368 9.484 47.2208 9.848 46.9328 10.16C46.6448 10.472 46.2808 10.716 45.8408 10.892C45.4088 11.06 44.9008 11.144 44.3168 11.144C44.0848 11.144 43.8528 11.124 43.6208 11.084C43.3888 11.044 43.2128 11.012 43.0928 10.988L43.1888 9.692C43.2768 9.732 43.3968 9.772 43.5488 9.812C43.7008 9.844 43.9008 9.86 44.1488 9.86C44.8208 9.86 45.3088 9.668 45.6128 9.284C45.9248 8.9 46.0808 8.372 46.0808 7.7C46.0808 7.036 45.9248 6.52 45.6128 6.152C45.3008 5.784 44.8328 5.6 44.2088 5.6C43.9608 5.6 43.7248 5.632 43.5008 5.696C43.2768 5.752 43.1168 5.816 43.0208 5.888L43.1768 5.456C43.2408 5.576 43.2808 5.728 43.2968 5.912C43.3208 6.088 43.3328 6.296 43.3328 6.536V13.784H41.6528ZM49.352 11V3.908C49.352 3.748 49.348 3.544 49.34 3.296C49.34 3.04 49.332 2.792 49.316 2.552C49.3 2.312 49.272 2.12 49.232 1.976L49.268 1.88H51.032V11H49.352ZM53.9069 3.416C53.6349 3.416 53.4069 3.336 53.2229 3.176C53.0469 3.008 52.9589 2.776 52.9589 2.48C52.9589 2.192 53.0469 1.968 53.2229 1.808C53.4069 1.64 53.6349 1.556 53.9069 1.556C54.1869 1.556 54.4149 1.64 54.5909 1.808C54.7669 1.968 54.8549 2.192 54.8549 2.48C54.8549 2.776 54.7669 3.008 54.5909 3.176C54.4149 3.336 54.1869 3.416 53.9069 3.416ZM53.0669 11V6.476C53.0669 6.316 53.0629 6.112 53.0549 5.864C53.0469 5.616 53.0349 5.372 53.0189 5.132C53.0109 4.884 52.9869 4.688 52.9469 4.544L52.9829 4.448H54.7469V11H53.0669ZM59.6377 11.096C59.0697 11.096 58.5857 11.012 58.1857 10.844C57.7937 10.676 57.4937 10.42 57.2857 10.076C57.0857 9.724 56.9857 9.272 56.9857 8.72V2.756H58.6657V8.588C58.6657 8.996 58.7617 9.288 58.9537 9.464C59.1457 9.64 59.4417 9.728 59.8417 9.728C59.9937 9.728 60.1417 9.712 60.2857 9.68C60.4377 9.648 60.5697 9.608 60.6817 9.56H60.7897V10.904C60.6457 10.96 60.4777 11.004 60.2857 11.036C60.0937 11.076 59.8777 11.096 59.6377 11.096ZM55.9417 5.792V4.448H60.4537V5.792H55.9417Z" fill="#20BD9C"/>
</svg>
